<?xml version="1.0" encoding="utf-8" standalone="no"?>
<!DOCTYPE svg PUBLIC "-//W3C//DTD SVG 1.1//EN"
  "http://www.w3.org/Graphics/SVG/1.1/DTD/svg11.dtd">
<!-- Created with matplotlib (https://matplotlib.org/) -->
<svg height="345.6pt" version="1.1" viewBox="0 0 460.8 345.6" width="460.8pt" xmlns="http://www.w3.org/2000/svg" xmlns:xlink="http://www.w3.org/1999/xlink">
 <defs>
  <style type="text/css">
*{stroke-linecap:butt;stroke-linejoin:round;}
  </style>
 </defs>
 <g id="figure_1">
  <g id="patch_1">
   <path d="M 0 345.6 
L 460.8 345.6 
L 460.8 0 
L 0 0 
z
" style="fill:#f0f0f0;"/>
  </g>
  <g id="axes_1">
   <g id="patch_2">
    <path d="M 55.786838 293.334351 
L 445.68 293.334351 
L 445.68 15.12 
L 55.786838 15.12 
z
" style="fill:#f0f0f0;"/>
   </g>
   <g id="matplotlib.axis_1">
    <g id="xtick_1">
     <g id="line2d_1">
      <path clip-path="url(#p391d8b1ac8)" d="M 73.154452 293.334351 
L 73.154452 15.12 
" style="fill:none;stroke:#cbcbcb;"/>
     </g>
     <g id="line2d_2"/>
     <g id="text_1">
      <!-- $0$ -->
      <defs>
       <path d="M 42 31.84375 
C 42 37.96875 41.90625 48.421875 37.703125 56.453125 
C 34 63.484375 28.09375 66 22.90625 66 
C 18.09375 66 12 63.78125 8.203125 56.5625 
C 4.203125 49.015625 3.796875 39.671875 3.796875 31.84375 
C 3.796875 26.109375 3.90625 17.375 7 9.734375 
C 11.296875 -0.609375 19 -2 22.90625 -2 
C 27.5 -2 34.5 -0.109375 38.59375 9.4375 
C 41.59375 16.375 42 24.5 42 31.84375 
z
M 22.90625 -0.40625 
C 16.5 -0.40625 12.703125 5.125 11.296875 12.75 
C 10.203125 18.6875 10.203125 27.328125 10.203125 32.953125 
C 10.203125 40.6875 10.203125 47.109375 11.5 53.234375 
C 13.40625 61.78125 19 64.390625 22.90625 64.390625 
C 27 64.390625 32.296875 61.671875 34.203125 53.4375 
C 35.5 47.71875 35.59375 40.984375 35.59375 32.953125 
C 35.59375 26.421875 35.59375 18.375 34.40625 12.453125 
C 32.296875 1.5 26.40625 -0.40625 22.90625 -0.40625 
z
" id="CMR17-48"/>
      </defs>
      <g transform="translate(69.740207 306.771999)scale(0.14 -0.14)">
       <use transform="scale(0.996264)" xlink:href="#CMR17-48"/>
      </g>
     </g>
    </g>
    <g id="xtick_2">
     <g id="line2d_3">
      <path clip-path="url(#p391d8b1ac8)" d="M 132.288307 293.334351 
L 132.288307 15.12 
" style="fill:none;stroke:#cbcbcb;"/>
     </g>
     <g id="line2d_4"/>
     <g id="text_2">
      <!-- $50$ -->
      <defs>
       <path d="M 11.40625 58.59375 
C 12.40625 58.1875 16.5 56.890625 20.703125 56.890625 
C 30 56.890625 35.09375 61.890625 38 64.6875 
C 38 65.484375 38 66 37.40625 66 
C 37.296875 66 37.09375 66 36.296875 65.59375 
C 32.796875 64.09375 28.703125 63 23.703125 63 
C 20.703125 63 16.203125 63.359375 11.296875 65.484375 
C 10.203125 66 10 66 9.90625 66 
C 9.40625 66 9.296875 65.890625 9.296875 63.90625 
L 9.296875 34.859375 
C 9.296875 33.015625 9.296875 32.5 10.296875 32.5 
C 10.796875 32.5 11 32.703125 11.5 33.421875 
C 14.703125 38.046875 19.09375 40 24.09375 40 
C 27.59375 40 35.09375 37.734375 35.09375 20.203125 
C 35.09375 16.984375 35.09375 11.1875 32.09375 6.59375 
C 29.59375 2.484375 25.703125 0.390625 21.40625 0.390625 
C 14.796875 0.390625 8.09375 4.984375 6.296875 12.6875 
C 6.703125 12.59375 7.5 12.390625 7.90625 12.390625 
C 9.203125 12.390625 11.703125 13.09375 11.703125 16.1875 
C 11.703125 18.890625 9.796875 20 7.90625 20 
C 5.59375 20 4.09375 18.59375 4.09375 15.796875 
C 4.09375 7.09375 11 -2 21.59375 -2 
C 31.90625 -2 41.703125 6.890625 41.703125 19.796875 
C 41.703125 32.09375 33.90625 41.59375 24.203125 41.59375 
C 19.09375 41.59375 14.796875 39.6875 11.40625 36 
z
" id="CMR17-53"/>
      </defs>
      <g transform="translate(125.459818 306.771999)scale(0.14 -0.14)">
       <use transform="scale(0.996264)" xlink:href="#CMR17-53"/>
       <use transform="translate(45.690477 0)scale(0.996264)" xlink:href="#CMR17-48"/>
      </g>
     </g>
    </g>
    <g id="xtick_3">
     <g id="line2d_5">
      <path clip-path="url(#p391d8b1ac8)" d="M 191.422162 293.334351 
L 191.422162 15.12 
" style="fill:none;stroke:#cbcbcb;"/>
     </g>
     <g id="line2d_6"/>
     <g id="text_3">
      <!-- $100$ -->
      <defs>
       <path d="M 26.59375 63.796875 
C 26.59375 65.890625 26.5 66 25.09375 66 
C 21.203125 61.359375 15.296875 59.890625 9.703125 59.6875 
C 9.40625 59.6875 8.90625 59.6875 8.796875 59.5 
C 8.703125 59.296875 8.703125 59.09375 8.703125 57 
C 11.796875 57 17 57.59375 21 59.984375 
L 21 7.296875 
C 21 3.796875 20.796875 2.59375 12.203125 2.59375 
L 9.203125 2.59375 
L 9.203125 0 
C 14 0.09375 19 0.1875 23.796875 0.1875 
C 28.59375 0.1875 33.59375 0.09375 38.40625 0 
L 38.40625 2.59375 
L 35.40625 2.59375 
C 26.796875 2.59375 26.59375 3.6875 26.59375 7.296875 
z
" id="CMR17-49"/>
      </defs>
      <g transform="translate(181.179429 306.771999)scale(0.14 -0.14)">
       <use transform="scale(0.996264)" xlink:href="#CMR17-49"/>
       <use transform="translate(45.690477 0)scale(0.996264)" xlink:href="#CMR17-48"/>
       <use transform="translate(91.380954 0)scale(0.996264)" xlink:href="#CMR17-48"/>
      </g>
     </g>
    </g>
    <g id="xtick_4">
     <g id="line2d_7">
      <path clip-path="url(#p391d8b1ac8)" d="M 250.556018 293.334351 
L 250.556018 15.12 
" style="fill:none;stroke:#cbcbcb;"/>
     </g>
     <g id="line2d_8"/>
     <g id="text_4">
      <!-- $150$ -->
      <g transform="translate(240.313285 306.771999)scale(0.14 -0.14)">
       <use transform="scale(0.996264)" xlink:href="#CMR17-49"/>
       <use transform="translate(45.690477 0)scale(0.996264)" xlink:href="#CMR17-53"/>
       <use transform="translate(91.380954 0)scale(0.996264)" xlink:href="#CMR17-48"/>
      </g>
     </g>
    </g>
    <g id="xtick_5">
     <g id="line2d_9">
      <path clip-path="url(#p391d8b1ac8)" d="M 309.689873 293.334351 
L 309.689873 15.12 
" style="fill:none;stroke:#cbcbcb;"/>
     </g>
     <g id="line2d_10"/>
     <g id="text_5">
      <!-- $200$ -->
      <defs>
       <path d="M 41.703125 15.46875 
L 39.90625 15.46875 
C 38.90625 8.390625 38.09375 7.1875 37.703125 6.59375 
C 37.203125 5.796875 30 5.796875 28.59375 5.796875 
L 9.40625 5.796875 
C 13 9.6875 20 16.765625 28.5 24.9375 
C 34.59375 30.71875 41.703125 37.5 41.703125 47.390625 
C 41.703125 59.1875 32.296875 66 21.796875 66 
C 10.796875 66 4.09375 56.296875 4.09375 47.296875 
C 4.09375 43.390625 7 42.890625 8.203125 42.890625 
C 9.203125 42.890625 12.203125 43.484375 12.203125 46.984375 
C 12.203125 50.09375 9.59375 51 8.203125 51 
C 7.59375 51 7 50.890625 6.59375 50.6875 
C 8.5 59.1875 14.296875 63.390625 20.40625 63.390625 
C 29.09375 63.390625 34.796875 56.5 34.796875 47.390625 
C 34.796875 38.703125 29.703125 31.21875 24 24.734375 
L 4.09375 2.296875 
L 4.09375 0 
L 39.296875 0 
z
" id="CMR17-50"/>
      </defs>
      <g transform="translate(299.44714 306.771999)scale(0.14 -0.14)">
       <use transform="scale(0.996264)" xlink:href="#CMR17-50"/>
       <use transform="translate(45.690477 0)scale(0.996264)" xlink:href="#CMR17-48"/>
       <use transform="translate(91.380954 0)scale(0.996264)" xlink:href="#CMR17-48"/>
      </g>
     </g>
    </g>
    <g id="xtick_6">
     <g id="line2d_11">
      <path clip-path="url(#p391d8b1ac8)" d="M 368.823728 293.334351 
L 368.823728 15.12 
" style="fill:none;stroke:#cbcbcb;"/>
     </g>
     <g id="line2d_12"/>
     <g id="text_6">
      <!-- $250$ -->
      <g transform="translate(358.580995 306.771999)scale(0.14 -0.14)">
       <use transform="scale(0.996264)" xlink:href="#CMR17-50"/>
       <use transform="translate(45.690477 0)scale(0.996264)" xlink:href="#CMR17-53"/>
       <use transform="translate(91.380954 0)scale(0.996264)" xlink:href="#CMR17-48"/>
      </g>
     </g>
    </g>
    <g id="xtick_7">
     <g id="line2d_13">
      <path clip-path="url(#p391d8b1ac8)" d="M 427.957584 293.334351 
L 427.957584 15.12 
" style="fill:none;stroke:#cbcbcb;"/>
     </g>
     <g id="line2d_14"/>
     <g id="text_7">
      <!-- $300$ -->
      <defs>
       <path d="M 22.09375 34 
C 31 34 34.90625 26.140625 34.90625 17.09375 
C 34.90625 5.03125 28.5 0.390625 22.703125 0.390625 
C 17.40625 0.390625 8.796875 3.015625 6.09375 10.796875 
C 6.59375 10.59375 7.09375 10.59375 7.59375 10.59375 
C 10 10.59375 11.796875 12.1875 11.796875 14.796875 
C 11.796875 17.6875 9.59375 19 7.59375 19 
C 5.90625 19 3.296875 18.1875 3.296875 14.484375 
C 3.296875 5.234375 12.296875 -2 22.90625 -2 
C 34 -2 42.5 6.75 42.5 16.984375 
C 42.5 26.84375 34.5 34 25 35.09375 
C 32.59375 36.671875 39.90625 43.375 39.90625 52.390625 
C 39.90625 60.25 32 66 23 66 
C 13.90625 66 5.90625 60.34375 5.90625 52.296875 
C 5.90625 48.796875 8.5 48.1875 9.796875 48.1875 
C 11.90625 48.1875 13.703125 49.484375 13.703125 52.09375 
C 13.703125 54.6875 11.90625 56 9.796875 56 
C 9.40625 56 8.90625 56 8.5 55.796875 
C 11.40625 62.484375 19.296875 63.6875 22.796875 63.6875 
C 26.296875 63.6875 32.90625 61.96875 32.90625 52.296875 
C 32.90625 49.484375 32.5 44.546875 29.09375 40.21875 
C 26.09375 36.390625 22.703125 36.1875 19.40625 35.890625 
C 18.90625 35.890625 16.59375 35.6875 16.203125 35.6875 
C 15.5 35.59375 15.09375 35.5 15.09375 34.796875 
C 15.09375 34.09375 15.203125 34 17.203125 34 
z
" id="CMR17-51"/>
      </defs>
      <g transform="translate(417.714851 306.771999)scale(0.14 -0.14)">
       <use transform="scale(0.996264)" xlink:href="#CMR17-51"/>
       <use transform="translate(45.690477 0)scale(0.996264)" xlink:href="#CMR17-48"/>
       <use transform="translate(91.380954 0)scale(0.996264)" xlink:href="#CMR17-48"/>
      </g>
     </g>
    </g>
    <g id="text_8">
     <!-- $\mathrm{Training \ steps \ (in \ thousands)}$ -->
     <defs>
      <path d="M 62.203125 67.6875 
L 4.5 67.6875 
L 2.796875 45.6875 
L 4.59375 45.6875 
C 5.90625 62.203125 7.296875 65.09375 22.703125 65.09375 
C 24.5 65.09375 27.40625 65.09375 28.203125 64.984375 
C 30.09375 64.6875 30.09375 63.5 30.09375 61.203125 
L 30.09375 7.265625 
C 30.09375 3.6875 29.796875 2.59375 21.5 2.59375 
L 18.703125 2.59375 
L 18.703125 0 
C 23.5 0.09375 28.5 0.1875 33.40625 0.1875 
C 38.296875 0.1875 43.296875 0.09375 48.09375 0 
L 48.09375 2.59375 
L 45.296875 2.59375 
C 37 2.59375 36.703125 3.6875 36.703125 7.265625 
L 36.703125 61.203125 
C 36.703125 63.390625 36.703125 64.59375 38.5 64.984375 
C 39.296875 65.09375 42.203125 65.09375 44 65.09375 
C 59.296875 65.09375 60.796875 62.203125 62.09375 45.6875 
L 63.90625 45.6875 
z
" id="CMR17-84"/>
      <path d="M 15 23.703125 
C 15 33.34375 19.09375 42.390625 26.59375 42.390625 
C 27.296875 42.390625 28 42.296875 28.703125 41.984375 
C 28.703125 41.984375 26.5 41.28125 26.5 38.671875 
C 26.5 36.265625 28.40625 35.265625 29.90625 35.265625 
C 31.09375 35.265625 33.296875 35.96875 33.296875 38.78125 
C 33.296875 41.984375 30.09375 44 26.703125 44 
C 19.09375 44 15.796875 36.5625 14.796875 33.046875 
L 14.703125 33.046875 
L 14.703125 44 
L 3.09375 42.890625 
L 3.09375 40.28125 
C 9 40.28125 9.90625 39.6875 9.90625 34.859375 
L 9.90625 6.921875 
C 9.90625 3.09375 9.5 2.59375 3.09375 2.59375 
L 3.09375 0 
C 5.5 0.1875 10.09375 0.1875 12.703125 0.1875 
C 15.59375 0.1875 20.703125 0.1875 23.40625 0 
L 23.40625 2.59375 
C 16.203125 2.59375 15 2.59375 15 7.109375 
z
" id="CMR17-114"/>
      <path d="M 36 25.875 
C 36 32 36 35.546875 31.796875 39.59375 
C 28.09375 42.984375 23.796875 44 20.40625 44 
C 12.5 44 6.796875 37.625 6.796875 30.890625 
C 6.796875 27.1875 9.796875 27 10.40625 27 
C 11.703125 27 14 27.796875 14 30.59375 
C 14 33.09375 12.09375 34.1875 10.40625 34.1875 
C 10 34.1875 9.5 34.09375 9.203125 34 
C 11.296875 40.53125 16.703125 42.390625 20.203125 42.390625 
C 25.203125 42.390625 30.703125 37.828125 30.703125 29.296875 
L 30.703125 25.5 
C 24.796875 25.296875 17.703125 24.5 12.09375 21.453125 
C 5.796875 17.921875 4 12.84375 4 9 
C 4 1.203125 13 -1 18.296875 -1 
C 23.796875 -1 28.90625 2.109375 31.09375 7.890625 
C 31.296875 3.421875 34.09375 -0.609375 38.5 -0.609375 
C 40.59375 -0.609375 45.90625 0.796875 45.90625 8.796875 
L 45.90625 14.46875 
L 44.09375 14.46875 
L 44.09375 8.703125 
C 44.09375 2.515625 41.40625 1.703125 40.09375 1.703125 
C 36 1.703125 36 6.96875 36 11.4375 
z
M 30.703125 13.859375 
C 30.703125 5.046875 24.5 0.59375 19 0.59375 
C 14 0.59375 10.09375 4.34375 10.09375 9 
C 10.09375 12.046875 11.40625 17.40625 17.203125 20.65625 
C 22 23.390625 27.5 23.796875 30.703125 24 
z
" id="CMR17-97"/>
      <path d="M 15.5 61.890625 
C 15.5 64.09375 13.703125 66 11.40625 66 
C 9.203125 66 7.296875 64.1875 7.296875 61.890625 
C 7.296875 59.6875 9.09375 57.796875 11.40625 57.796875 
C 13.59375 57.796875 15.5 59.59375 15.5 61.890625 
z
M 3.796875 42.890625 
L 3.796875 40.296875 
C 9.40625 40.296875 10.203125 39.6875 10.203125 34.859375 
L 10.203125 6.921875 
C 10.203125 3.09375 9.796875 2.59375 3.40625 2.59375 
L 3.40625 0 
C 5.796875 0.1875 10.09375 0.1875 12.59375 0.1875 
C 15 0.1875 19.09375 0.1875 21.40625 0 
L 21.40625 2.59375 
C 15.5 2.59375 15.296875 3.203125 15.296875 6.8125 
L 15.296875 44 
z
" id="CMR17-105"/>
      <path d="M 41.5 30.53125 
C 41.5 35.65625 40.5 44 28.703125 44 
C 20.796875 44 16.703125 37.875 15.203125 33.84375 
L 15.09375 33.84375 
L 15.09375 44 
L 3.296875 42.890625 
L 3.296875 40.28125 
C 9.203125 40.28125 10.09375 39.6875 10.09375 34.859375 
L 10.09375 6.921875 
C 10.09375 3.09375 9.703125 2.59375 3.296875 2.59375 
L 3.296875 0 
C 5.703125 0.1875 10.09375 0.1875 12.703125 0.1875 
C 15.296875 0.1875 19.796875 0.1875 22.203125 0 
L 22.203125 2.59375 
C 15.796875 2.59375 15.40625 3 15.40625 6.921875 
L 15.40625 26.21875 
C 15.40625 35.453125 21 42.390625 28 42.390625 
C 35.40625 42.390625 36.203125 35.765625 36.203125 30.9375 
L 36.203125 6.921875 
C 36.203125 3.09375 35.796875 2.59375 29.40625 2.59375 
L 29.40625 0 
C 31.796875 0.1875 36.203125 0.1875 38.796875 0.1875 
C 41.40625 0.1875 45.90625 0.1875 48.296875 0 
L 48.296875 2.59375 
C 41.90625 2.59375 41.5 3 41.5 6.921875 
z
" id="CMR17-110"/>
      <path d="M 11.09375 18.203125 
C 13 16.6875 16.296875 15 20.296875 15 
C 28.203125 15 35 21.234375 35 29.609375 
C 35 32.234375 34.203125 36.265625 31.203125 39.390625 
C 34 42.390625 38.09375 43.390625 40.40625 43.390625 
C 40.796875 43.390625 41.40625 43.390625 41.90625 43.09375 
C 41.5 42.984375 40.59375 42.59375 40.59375 40.984375 
C 40.59375 39.6875 41.5 38.796875 42.796875 38.796875 
C 44.296875 38.796875 45.09375 39.796875 45.09375 41.09375 
C 45.09375 42.984375 43.59375 45 40.40625 45 
C 36.40625 45 32.90625 43.09375 30.09375 40.484375 
C 27.09375 43.1875 23.5 44.1875 20.296875 44.1875 
C 12.40625 44.1875 5.59375 37.984375 5.59375 29.609375 
C 5.59375 23.859375 8.90625 20.21875 9.90625 19.21875 
C 6.90625 15.6875 6.90625 11.59375 6.90625 11.09375 
C 6.90625 8.5 7.90625 4.6875 11.296875 2.59375 
C 6.09375 1.28125 2 -2.875 2 -8.078125 
C 2 -15.5625 11.5 -21 22.90625 -21 
C 33.90625 -21 43.796875 -15.765625 43.796875 -7.96875 
C 43.796875 6 29 6 21.296875 6 
C 19 6 14.90625 6 14.40625 6.09375 
C 11.296875 6.59375 9.203125 9.390625 9.203125 12.890625 
C 9.203125 13.796875 9.203125 16 11.09375 18.203125 
z
M 20.296875 16.6875 
C 11.5 16.6875 11.5 27.59375 11.5 29.609375 
C 11.5 31.625 11.5 42.484375 20.296875 42.484375 
C 29.09375 42.484375 29.09375 31.625 29.09375 29.609375 
C 29.09375 27.59375 29.09375 16.6875 20.296875 16.6875 
z
M 22.90625 -19.3125 
C 12.90625 -19.3125 6 -13.796875 6 -8.078125 
C 6 -4.859375 7.703125 -1.84375 9.90625 -0.171875 
C 12.40625 1.59375 13.40625 1.59375 20.203125 1.59375 
C 28.40625 1.59375 39.796875 1.59375 39.796875 -8.078125 
C 39.796875 -13.796875 32.90625 -19.3125 22.90625 -19.3125 
z
" id="CMR17-103"/>
      <path d="M 30.90625 42 
C 30.90625 43.796875 30.796875 43.890625 30.203125 43.890625 
C 29.796875 43.890625 29.703125 43.796875 28.5 42.296875 
C 28.203125 41.890625 27.296875 40.890625 27 40.5 
C 23.796875 43.890625 19.296875 44 17.59375 44 
C 6.5 44 2.5 38.1875 2.5 32.390625 
C 2.5 23.390625 12.703125 21.296875 15.59375 20.6875 
C 21.90625 19.390625 24.09375 19 26.203125 17.1875 
C 27.5 16 29.703125 13.796875 29.703125 10.1875 
C 29.703125 6 27.296875 0.59375 18.09375 0.59375 
C 9.40625 0.59375 6.296875 7.1875 4.5 16 
C 4.203125 17.390625 4.203125 17.5 3.40625 17.5 
C 2.59375 17.5 2.5 17.390625 2.5 15.390625 
L 2.5 1 
C 2.5 -0.8125 2.59375 -0.90625 3.203125 -0.90625 
C 3.703125 -0.90625 3.796875 -0.8125 4.296875 0 
C 4.90625 0.890625 6.40625 3.296875 7 4.296875 
C 9 1.59375 12.5 -1 18.09375 -1 
C 28 -1 33.296875 4.390625 33.296875 12.1875 
C 33.296875 17.296875 30.59375 20 29.296875 21.1875 
C 26.296875 24.296875 22.796875 25 18.59375 25.796875 
C 13.09375 27 6.09375 28.390625 6.09375 34.5 
C 6.09375 37.09375 7.5 42.59375 17.59375 42.59375 
C 28.296875 42.59375 28.90625 32.59375 29.09375 29.390625 
C 29.203125 28.890625 29.703125 28.796875 30 28.796875 
C 30.90625 28.796875 30.90625 29.09375 30.90625 30.796875 
z
" id="CMR17-115"/>
      <path d="M 15.09375 40.390625 
L 29.09375 40.390625 
L 29.09375 43 
L 15.09375 43 
L 15.09375 62 
L 13.296875 62 
C 13.09375 51.4375 9.59375 42.1875 1.09375 41.984375 
L 1.09375 40.390625 
L 9.796875 40.390625 
L 9.796875 12.15625 
C 9.796875 10.234375 9.796875 -1 21.40625 -1 
C 27.296875 -1 30.703125 4.8125 30.703125 12.25 
L 30.703125 17.984375 
L 28.90625 17.984375 
L 28.90625 12.34375 
C 28.90625 5.421875 26.203125 0.796875 22 0.796875 
C 19.09375 0.796875 15.09375 2.796875 15.09375 11.953125 
z
" id="CMR17-116"/>
      <path d="M 38.09375 23.484375 
C 38.5 23.890625 38.5 24.09375 38.5 25.09375 
C 38.5 35.171875 33.09375 44 21.703125 44 
C 11.09375 44 2.703125 33.984375 2.703125 21.78125 
C 2.703125 8.65625 12.203125 -1 22.796875 -1 
C 34 -1 38.40625 9.671875 38.40625 11.796875 
C 38.40625 12.5 37.796875 12.5 37.59375 12.5 
C 36.90625 12.5 36.796875 12.296875 36.40625 11.078125 
C 34.203125 4.21875 28.703125 0.796875 23.5 0.796875 
C 19.203125 0.796875 14.90625 3.21875 12.203125 7.65625 
C 9.09375 12.796875 9.09375 18.75 9.09375 23.484375 
z
M 9.203125 25 
C 9.90625 39.234375 17.59375 42.390625 21.59375 42.390625 
C 28.40625 42.390625 33 36.0625 33.09375 25 
z
" id="CMR17-101"/>
      <path d="M 22 -17.40625 
C 15.59375 -17.40625 15.203125 -17 15.203125 -13.03125 
L 15.203125 5.9375 
C 18.09375 1.703125 22.296875 -1 27.59375 -1 
C 37.59375 -1 47.703125 7.859375 47.703125 21.59375 
C 47.703125 34.3125 39 44 28.703125 44 
C 22.703125 44 17.796875 40.671875 15 36.640625 
L 15 44 
L 3.09375 42.890625 
L 3.09375 40.265625 
C 9 40.265625 9.90625 39.671875 9.90625 34.8125 
L 9.90625 -13.03125 
C 9.90625 -16.890625 9.5 -17.40625 3.09375 -17.40625 
L 3.09375 -20 
C 5.5 -19.8125 9.90625 -19.8125 12.5 -19.8125 
C 15.09375 -19.8125 19.59375 -19.8125 22 -20 
z
M 15.203125 31.484375 
C 15.203125 32.90625 15.203125 35.015625 19.09375 38.765625 
C 19.59375 39.15625 23 42.1875 28 42.1875 
C 35.296875 42.1875 41.296875 33 41.296875 21.5 
C 41.296875 9.984375 34.90625 0.59375 27 0.59375 
C 23.40625 0.59375 19.5 2.3125 16.5 7.046875 
C 15.203125 9.28125 15.203125 9.875 15.203125 11.5 
z
" id="CMR17-112"/>
      <path d="M 30.59375 -24.40625 
C 30.59375 -24.3125 30.59375 -24.109375 30.296875 -23.8125 
C 25.703125 -19.109375 13.40625 -6.296875 13.40625 24.9375 
C 13.40625 56.171875 25.5 68.875 30.40625 73.890625 
C 30.40625 73.984375 30.59375 74.1875 30.59375 74.484375 
C 30.59375 74.796875 30.296875 75 29.90625 75 
C 28.796875 75 20.296875 67.578125 15.40625 56.5625 
C 10.40625 45.453125 9 34.65625 9 25.046875 
C 9 17.828125 9.703125 5.625 15.703125 -7.296875 
C 20.5 -17.703125 28.703125 -25 29.90625 -25 
C 30.40625 -25 30.59375 -24.8125 30.59375 -24.40625 
z
" id="CMR17-40"/>
      <path d="M 41.5 30.53125 
C 41.5 35.65625 40.5 44 28.703125 44 
C 20.5 44 16.5 37.375 15.296875 34.046875 
L 15.203125 34.046875 
L 15.203125 69 
L 3.296875 67.890625 
L 3.296875 65.296875 
C 9.203125 65.296875 10.09375 64.703125 10.09375 60.046875 
L 10.09375 6.921875 
C 10.09375 3.09375 9.703125 2.59375 3.296875 2.59375 
L 3.296875 0 
C 5.703125 0.1875 10.09375 0.1875 12.703125 0.1875 
C 15.296875 0.1875 19.796875 0.1875 22.203125 0 
L 22.203125 2.59375 
C 15.796875 2.59375 15.40625 3 15.40625 6.921875 
L 15.40625 26.21875 
C 15.40625 35.453125 21 42.390625 28 42.390625 
C 35.40625 42.390625 36.203125 35.765625 36.203125 30.9375 
L 36.203125 6.921875 
C 36.203125 3.09375 35.796875 2.59375 29.40625 2.59375 
L 29.40625 0 
C 31.796875 0.1875 36.203125 0.1875 38.796875 0.1875 
C 41.40625 0.1875 45.90625 0.1875 48.296875 0 
L 48.296875 2.59375 
C 41.90625 2.59375 41.5 3 41.5 6.921875 
z
" id="CMR17-104"/>
      <path d="M 43.09375 21.1875 
C 43.09375 34 33.796875 44 22.90625 44 
C 12 44 2.703125 34 2.703125 21.1875 
C 2.703125 8.59375 12 -1 22.90625 -1 
C 33.796875 -1 43.09375 8.59375 43.09375 21.1875 
z
M 22.90625 0.796875 
C 18.203125 0.796875 14.203125 3.59375 11.90625 7.5 
C 9.40625 12 9.09375 17.59375 9.09375 22 
C 9.09375 26.1875 9.296875 31.390625 11.90625 35.890625 
C 13.90625 39.1875 17.796875 42.390625 22.90625 42.390625 
C 27.40625 42.390625 31.203125 39.890625 33.59375 36.390625 
C 36.703125 31.6875 36.703125 25.09375 36.703125 22 
C 36.703125 18.09375 36.5 12.09375 33.796875 7.296875 
C 31 2.6875 26.703125 0.796875 22.90625 0.796875 
z
" id="CMR17-111"/>
      <path d="M 29.40625 42.890625 
L 29.40625 40.296875 
C 35.296875 40.296875 36.203125 39.6875 36.203125 34.828125 
L 36.203125 16.453125 
C 36.203125 7.96875 31.703125 0.59375 24.296875 0.59375 
C 16.09375 0.59375 15.40625 5.546875 15.40625 10.796875 
L 15.40625 44 
L 3.296875 42.890625 
L 3.296875 40.296875 
C 7.296875 40.296875 10 40.296875 10.09375 36.25 
L 10.09375 16.859375 
C 10.09375 10.09375 10.09375 5.75 12.703125 2.921875 
C 14 1.609375 16.5 -1 23.703125 -1 
C 32.203125 -1 35.5 6.25 36.296875 8.375 
L 36.40625 8.375 
L 36.40625 -1 
L 48.296875 -0.203125 
L 48.296875 2.40625 
C 42.40625 2.40625 41.5 3.015625 41.5 7.859375 
L 41.5 44 
z
" id="CMR17-117"/>
      <path d="M 29.203125 67.890625 
L 29.203125 65.296875 
C 35.09375 65.296875 36 64.703125 36 60.046875 
L 36 37.046875 
C 35.59375 37.546875 31.5 44 23.40625 44 
C 13.203125 44 3.296875 34.8125 3.296875 21.5 
C 3.296875 8.265625 12.59375 -1 22.40625 -1 
C 30.90625 -1 35.296875 5.640625 35.796875 6.34375 
L 35.796875 -1 
L 47.90625 -0.203125 
L 47.90625 2.40625 
C 42 2.40625 41.09375 3.015625 41.09375 7.859375 
L 41.09375 69 
z
M 35.796875 11.90625 
C 35.796875 8.875 34 6.140625 31.703125 4.125 
C 28.296875 1.09375 24.90625 0.59375 23 0.59375 
C 20.09375 0.59375 9.703125 2.109375 9.703125 21.390625 
C 9.703125 41.1875 21.296875 42.390625 23.90625 42.390625 
C 28.5 42.390625 32.203125 39.765625 34.5 36.140625 
C 35.796875 34.015625 35.796875 33.703125 35.796875 31.890625 
z
" id="CMR17-100"/>
      <path d="M 26.296875 24.9375 
C 26.296875 32.140625 25.59375 44.359375 19.59375 57.265625 
C 14.796875 67.6875 6.59375 75 5.40625 75 
C 5.09375 75 4.703125 74.890625 4.703125 74.390625 
C 4.703125 74.1875 4.796875 74.09375 4.90625 73.890625 
C 9.703125 68.875 21.90625 56.171875 21.90625 25.046875 
C 21.90625 -6.1875 9.796875 -18.90625 4.90625 -23.90625 
C 4.796875 -24.109375 4.703125 -24.203125 4.703125 -24.40625 
C 4.703125 -24.90625 5.09375 -25 5.40625 -25 
C 6.5 -25 15 -17.609375 19.90625 -6.59375 
C 24.90625 4.515625 26.296875 15.328125 26.296875 24.9375 
z
" id="CMR17-41"/>
     </defs>
     <g transform="translate(146.266208 326.295694)scale(0.168 -0.168)">
      <use transform="scale(0.996264)" xlink:href="#CMR17-84"/>
      <use transform="translate(58.702625 0)scale(0.996264)" xlink:href="#CMR17-114"/>
      <use transform="translate(93.983393 0)scale(0.996264)" xlink:href="#CMR17-97"/>
      <use transform="translate(139.67387 0)scale(0.996264)" xlink:href="#CMR17-105"/>
      <use transform="translate(164.544929 0)scale(0.996264)" xlink:href="#CMR17-110"/>
      <use transform="translate(215.440298 0)scale(0.996264)" xlink:href="#CMR17-105"/>
      <use transform="translate(240.311357 0)scale(0.996264)" xlink:href="#CMR17-110"/>
      <use transform="translate(291.206727 0)scale(0.996264)" xlink:href="#CMR17-103"/>
      <use transform="translate(365.893539 0)scale(0.996264)" xlink:href="#CMR17-115"/>
      <use transform="translate(401.694877 0)scale(0.996264)" xlink:href="#CMR17-116"/>
      <use transform="translate(436.975645 0)scale(0.996264)" xlink:href="#CMR17-101"/>
      <use transform="translate(477.461305 0)scale(0.996264)" xlink:href="#CMR17-112"/>
      <use transform="translate(528.356675 0)scale(0.996264)" xlink:href="#CMR17-115"/>
      <use transform="translate(591.853182 0)scale(0.996264)" xlink:href="#CMR17-40"/>
      <use transform="translate(627.13395 0)scale(0.996264)" xlink:href="#CMR17-105"/>
      <use transform="translate(652.005009 0)scale(0.996264)" xlink:href="#CMR17-110"/>
      <use transform="translate(730.595548 0)scale(0.996264)" xlink:href="#CMR17-116"/>
      <use transform="translate(765.876316 0)scale(0.996264)" xlink:href="#CMR17-104"/>
      <use transform="translate(816.771686 0)scale(0.996264)" xlink:href="#CMR17-111"/>
      <use transform="translate(862.462163 0)scale(0.996264)" xlink:href="#CMR17-117"/>
      <use transform="translate(913.357533 0)scale(0.996264)" xlink:href="#CMR17-115"/>
      <use transform="translate(949.15887 0)scale(0.996264)" xlink:href="#CMR17-97"/>
      <use transform="translate(994.849347 0)scale(0.996264)" xlink:href="#CMR17-110"/>
      <use transform="translate(1045.744717 0)scale(0.996264)" xlink:href="#CMR17-100"/>
      <use transform="translate(1096.640087 0)scale(0.996264)" xlink:href="#CMR17-115"/>
      <use transform="translate(1132.441424 0)scale(0.996264)" xlink:href="#CMR17-41"/>
     </g>
    </g>
   </g>
   <g id="matplotlib.axis_2">
    <g id="ytick_1">
     <g id="line2d_15">
      <path clip-path="url(#p391d8b1ac8)" d="M 55.786838 280.688244 
L 445.68 280.688244 
" style="fill:none;stroke:#cbcbcb;"/>
     </g>
     <g id="line2d_16"/>
     <g id="text_9">
      <!-- $\mathdefault{-5}$ -->
      <defs>
       <path d="M 65.90625 23 
C 67.59375 23 69.40625 23 69.40625 25 
C 69.40625 27 67.59375 27 65.90625 27 
L 11.796875 27 
C 10.09375 27 8.296875 27 8.296875 25 
C 8.296875 23 10.09375 23 11.796875 23 
z
" id="CMSY10-0"/>
      </defs>
      <g transform="translate(34.610115 285.657068)scale(0.14 -0.14)">
       <use transform="scale(0.996264)" xlink:href="#CMSY10-0"/>
       <use transform="translate(77.487468 0)scale(0.996264)" xlink:href="#CMR17-53"/>
      </g>
     </g>
    </g>
    <g id="ytick_2">
     <g id="line2d_17">
      <path clip-path="url(#p391d8b1ac8)" d="M 55.786838 235.523576 
L 445.68 235.523576 
" style="fill:none;stroke:#cbcbcb;"/>
     </g>
     <g id="line2d_18"/>
     <g id="text_10">
      <!-- $\mathdefault{0}$ -->
      <g transform="translate(45.45835 240.492401)scale(0.14 -0.14)">
       <use transform="scale(0.996264)" xlink:href="#CMR17-48"/>
      </g>
     </g>
    </g>
    <g id="ytick_3">
     <g id="line2d_19">
      <path clip-path="url(#p391d8b1ac8)" d="M 55.786838 190.358909 
L 445.68 190.358909 
" style="fill:none;stroke:#cbcbcb;"/>
     </g>
     <g id="line2d_20"/>
     <g id="text_11">
      <!-- $\mathdefault{5}$ -->
      <g transform="translate(45.45835 195.327733)scale(0.14 -0.14)">
       <use transform="scale(0.996264)" xlink:href="#CMR17-53"/>
      </g>
     </g>
    </g>
    <g id="ytick_4">
     <g id="line2d_21">
      <path clip-path="url(#p391d8b1ac8)" d="M 55.786838 145.194242 
L 445.68 145.194242 
" style="fill:none;stroke:#cbcbcb;"/>
     </g>
     <g id="line2d_22"/>
     <g id="text_12">
      <!-- $\mathdefault{10}$ -->
      <g transform="translate(38.629861 150.163066)scale(0.14 -0.14)">
       <use transform="scale(0.996264)" xlink:href="#CMR17-49"/>
       <use transform="translate(45.690477 0)scale(0.996264)" xlink:href="#CMR17-48"/>
      </g>
     </g>
    </g>
    <g id="ytick_5">
     <g id="line2d_23">
      <path clip-path="url(#p391d8b1ac8)" d="M 55.786838 100.029575 
L 445.68 100.029575 
" style="fill:none;stroke:#cbcbcb;"/>
     </g>
     <g id="line2d_24"/>
     <g id="text_13">
      <!-- $\mathdefault{15}$ -->
      <g transform="translate(38.629861 104.998399)scale(0.14 -0.14)">
       <use transform="scale(0.996264)" xlink:href="#CMR17-49"/>
       <use transform="translate(45.690477 0)scale(0.996264)" xlink:href="#CMR17-53"/>
      </g>
     </g>
    </g>
    <g id="ytick_6">
     <g id="line2d_25">
      <path clip-path="url(#p391d8b1ac8)" d="M 55.786838 54.864907 
L 445.68 54.864907 
" style="fill:none;stroke:#cbcbcb;"/>
     </g>
     <g id="line2d_26"/>
     <g id="text_14">
      <!-- $\mathdefault{20}$ -->
      <g transform="translate(38.629861 59.833731)scale(0.14 -0.14)">
       <use transform="scale(0.996264)" xlink:href="#CMR17-50"/>
       <use transform="translate(45.690477 0)scale(0.996264)" xlink:href="#CMR17-48"/>
      </g>
     </g>
    </g>
    <g id="text_15">
     <!-- $\mathrm{Score}$ -->
     <defs>
      <path d="M 43.796875 67.984375 
C 43.796875 69.796875 43.703125 69.890625 43.09375 69.890625 
C 42.5 69.890625 42.296875 69.484375 41.90625 68.59375 
L 38.90625 61.953125 
C 35.09375 67.5 29.296875 70 23 70 
C 12.796875 70 4.59375 61.84375 4.59375 51.578125 
C 4.59375 48.453125 5.296875 44.015625 8.703125 39.78125 
C 12.40625 35.15625 15.90625 34.34375 23.90625 32.234375 
C 26.90625 31.421875 31.90625 30.109375 32.90625 29.703125 
C 38.59375 27.296875 41.59375 21.25 41.59375 15.609375 
C 41.59375 8.34375 36.5 0.59375 27.796875 0.59375 
C 17.09375 0.59375 7.09375 6.640625 6.40625 20.75 
C 6.296875 22.359375 6.203125 22.453125 5.5 22.453125 
C 4.703125 22.453125 4.59375 22.359375 4.59375 20.34375 
L 4.59375 0 
C 4.59375 -1.8125 4.703125 -1.90625 5.296875 -1.90625 
C 6 -1.90625 6.203125 -1.40625 7.59375 1.703125 
C 7.703125 2 7.703125 2.203125 9.59375 6.03125 
C 14.59375 -0.609375 23 -2 27.796875 -2 
C 38.703125 -2 46.40625 7.140625 46.40625 17.828125 
C 46.40625 23.0625 44.5 27.09375 43.40625 28.90625 
C 39.203125 35.359375 34.703125 36.5625 29.90625 37.765625 
C 29.203125 38.078125 29 38.078125 23.40625 39.484375 
C 18 40.890625 15.703125 41.59375 13.203125 44.3125 
C 10.40625 47.4375 9.40625 50.671875 9.40625 53.890625 
C 9.40625 60.4375 14.59375 67.59375 23.09375 67.59375 
C 33.703125 67.59375 40.296875 60.03125 41.796875 47.4375 
C 42.09375 45.625 42.203125 45.53125 42.90625 45.53125 
C 43.796875 45.53125 43.796875 45.828125 43.796875 47.546875 
z
" id="CMR17-83"/>
      <path d="M 34.90625 35 
C 33 35 30.203125 35 30.203125 31.484375 
C 30.203125 28.6875 32.5 27.890625 33.796875 27.890625 
C 34.5 27.890625 37.40625 28.1875 37.40625 31.6875 
C 37.40625 38.6875 30.59375 44 22.90625 44 
C 12.296875 44 3.296875 34.390625 3.296875 21.546875 
C 3.296875 8.140625 12.703125 -1 22.90625 -1 
C 35.296875 -1 38.40625 10.5625 38.40625 11.671875 
C 38.40625 12.078125 38.296875 12.375 37.59375 12.375 
C 36.90625 12.375 36.796875 12.28125 36.40625 10.96875 
C 33.796875 2.8125 28.09375 0.796875 23.796875 0.796875 
C 17.40625 0.796875 9.703125 6.734375 9.703125 21.640625 
C 9.703125 36.84375 17.09375 42.1875 23 42.1875 
C 26.90625 42.1875 32.703125 40.34375 34.90625 35 
z
" id="CMR17-99"/>
     </defs>
     <g transform="translate(27.045175 173.346943)rotate(-90)scale(0.168 -0.168)">
      <use transform="scale(0.996264)" xlink:href="#CMR17-83"/>
      <use transform="translate(50.89537 0)scale(0.996264)" xlink:href="#CMR17-99"/>
      <use transform="translate(91.38103 0)scale(0.996264)" xlink:href="#CMR17-111"/>
      <use transform="translate(137.071507 0)scale(0.996264)" xlink:href="#CMR17-114"/>
      <use transform="translate(172.352275 0)scale(0.996264)" xlink:href="#CMR17-101"/>
     </g>
    </g>
   </g>
   <g id="line2d_27">
    <path clip-path="url(#p391d8b1ac8)" d="M 73.509255 235.523576 
L 73.864058 217.457709 
L 74.218861 226.490643 
L 74.573664 217.457709 
L 74.928467 235.523576 
L 75.28327 244.55651 
L 75.638074 217.457709 
L 75.992877 235.523576 
L 76.34768 235.523576 
L 76.702483 244.55651 
L 77.057286 235.523576 
L 77.412089 244.55651 
L 78.121695 244.55651 
L 78.476499 235.523576 
L 78.831302 217.457709 
L 79.186105 235.523576 
L 79.540908 235.523576 
L 79.895711 226.490643 
L 80.250514 262.622377 
L 80.605317 235.523576 
L 80.960121 226.490643 
L 81.314924 253.589443 
L 81.669727 244.55651 
L 82.02453 244.55651 
L 82.379333 235.523576 
L 82.734136 235.523576 
L 83.088939 253.589443 
L 83.443742 235.523576 
L 83.798546 235.523576 
L 84.153349 244.55651 
L 84.508152 235.523576 
L 84.862955 244.55651 
L 85.217758 244.55651 
L 85.572561 280.688244 
L 85.927364 226.490643 
L 86.282168 226.490643 
L 86.636971 235.523576 
L 87.346577 235.523576 
L 87.70138 244.55651 
L 88.056183 262.622377 
L 88.410986 226.490643 
L 88.765789 235.523576 
L 89.120593 226.490643 
L 89.475396 235.523576 
L 90.539805 235.523576 
L 90.894608 226.490643 
L 91.249411 244.55651 
L 91.604215 253.589443 
L 91.959018 244.55651 
L 92.313821 262.622377 
L 92.668624 253.589443 
L 93.023427 253.589443 
L 93.37823 235.523576 
L 93.733033 235.523576 
L 94.087836 226.490643 
L 94.44264 226.490643 
L 94.797443 244.55651 
L 95.507049 226.490643 
L 95.861852 226.490643 
L 96.216655 217.457709 
L 96.571458 226.490643 
L 96.926261 244.55651 
L 97.281065 235.523576 
L 97.635868 235.523576 
L 97.990671 208.424776 
L 98.345474 244.55651 
L 99.764687 244.55651 
L 100.11949 208.424776 
L 100.474293 253.589443 
L 100.829096 226.490643 
L 101.183899 208.424776 
L 101.538702 235.523576 
L 101.893505 235.523576 
L 102.248308 217.457709 
L 102.603112 244.55651 
L 102.957915 190.358909 
L 103.312718 244.55651 
L 103.667521 217.457709 
L 104.022324 217.457709 
L 104.377127 226.490643 
L 104.73193 244.55651 
L 105.086734 235.523576 
L 105.441537 217.457709 
L 105.79634 226.490643 
L 106.505946 226.490643 
L 106.860749 244.55651 
L 107.570355 226.490643 
L 107.925159 262.622377 
L 108.279962 235.523576 
L 108.634765 226.490643 
L 108.989568 244.55651 
L 109.344371 226.490643 
L 109.699174 244.55651 
L 110.053977 235.523576 
L 110.763584 235.523576 
L 111.118387 244.55651 
L 111.47319 217.457709 
L 111.827993 235.523576 
L 112.537599 235.523576 
L 112.892402 253.589443 
L 113.247206 244.55651 
L 113.602009 244.55651 
L 113.956812 253.589443 
L 114.311615 235.523576 
L 114.666418 235.523576 
L 115.021221 217.457709 
L 115.376024 235.523576 
L 115.730827 217.457709 
L 116.085631 244.55651 
L 116.440434 235.523576 
L 117.859646 235.523576 
L 118.214449 244.55651 
L 118.569253 235.523576 
L 120.698071 235.523576 
L 121.052874 226.490643 
L 121.407678 235.523576 
L 121.762481 208.424776 
L 122.117284 235.523576 
L 122.472087 253.589443 
L 122.82689 226.490643 
L 123.181693 208.424776 
L 123.536496 226.490643 
L 123.8913 235.523576 
L 124.600906 235.523576 
L 124.955709 244.55651 
L 125.310512 226.490643 
L 125.665315 235.523576 
L 126.020118 235.523576 
L 126.374921 217.457709 
L 127.084528 235.523576 
L 127.439331 235.523576 
L 127.794134 217.457709 
L 128.148937 226.490643 
L 128.50374 226.490643 
L 128.858543 208.424776 
L 129.213346 208.424776 
L 129.56815 235.523576 
L 129.922953 244.55651 
L 130.277756 217.457709 
L 130.632559 244.55651 
L 130.987362 226.490643 
L 131.342165 217.457709 
L 131.696968 235.523576 
L 132.051772 226.490643 
L 132.406575 226.490643 
L 132.761378 235.523576 
L 133.470984 235.523576 
L 133.825787 226.490643 
L 134.535393 244.55651 
L 134.890197 226.490643 
L 135.245 244.55651 
L 135.599803 226.490643 
L 135.954606 235.523576 
L 136.664212 235.523576 
L 137.019015 244.55651 
L 137.373819 235.523576 
L 137.728622 235.523576 
L 138.083425 226.490643 
L 138.438228 244.55651 
L 138.793031 244.55651 
L 139.147834 235.523576 
L 139.502637 235.523576 
L 139.85744 253.589443 
L 140.212244 226.490643 
L 140.567047 235.523576 
L 140.92185 253.589443 
L 141.276653 226.490643 
L 141.631456 235.523576 
L 141.986259 235.523576 
L 142.341062 262.622377 
L 142.695866 235.523576 
L 143.050669 235.523576 
L 143.405472 253.589443 
L 143.760275 235.523576 
L 144.115078 262.622377 
L 144.469881 235.523576 
L 144.824684 235.523576 
L 145.179487 253.589443 
L 145.534291 244.55651 
L 145.889094 244.55651 
L 146.243897 235.523576 
L 146.5987 262.622377 
L 146.953503 244.55651 
L 147.308306 217.457709 
L 147.663109 235.523576 
L 148.017912 244.55651 
L 148.372716 217.457709 
L 148.727519 235.523576 
L 149.082322 208.424776 
L 149.437125 253.589443 
L 149.791928 199.391843 
L 150.146731 226.490643 
L 150.501534 217.457709 
L 150.856338 235.523576 
L 151.211141 235.523576 
L 151.565944 244.55651 
L 152.27555 226.490643 
L 152.630353 208.424776 
L 152.985156 235.523576 
L 153.339959 271.65531 
L 153.694763 208.424776 
L 154.049566 235.523576 
L 154.404369 244.55651 
L 154.759172 235.523576 
L 155.113975 244.55651 
L 155.468778 226.490643 
L 155.823581 235.523576 
L 156.178385 235.523576 
L 156.533188 244.55651 
L 156.887991 226.490643 
L 157.242794 235.523576 
L 157.597597 226.490643 
L 157.9524 226.490643 
L 158.307203 244.55651 
L 158.662006 235.523576 
L 161.145628 235.523576 
L 161.500431 217.457709 
L 161.855235 226.490643 
L 162.210038 208.424776 
L 162.564841 226.490643 
L 162.919644 235.523576 
L 163.274447 226.490643 
L 163.62925 226.490643 
L 163.984053 235.523576 
L 164.338857 253.589443 
L 164.69366 226.490643 
L 165.048463 244.55651 
L 165.758069 208.424776 
L 166.112872 244.55651 
L 166.467675 244.55651 
L 166.822478 208.424776 
L 167.177282 217.457709 
L 167.532085 208.424776 
L 167.886888 235.523576 
L 168.241691 217.457709 
L 168.596494 226.490643 
L 168.951297 253.589443 
L 169.3061 208.424776 
L 170.015707 244.55651 
L 170.37051 235.523576 
L 170.725313 235.523576 
L 171.080116 226.490643 
L 171.434919 244.55651 
L 171.789722 226.490643 
L 172.144525 244.55651 
L 172.499329 226.490643 
L 172.854132 244.55651 
L 173.563738 226.490643 
L 174.628147 226.490643 
L 174.982951 235.523576 
L 175.337754 253.589443 
L 175.692557 235.523576 
L 176.04736 244.55651 
L 176.756966 226.490643 
L 177.111769 235.523576 
L 177.466572 208.424776 
L 177.821376 226.490643 
L 178.176179 181.325976 
L 178.530982 253.589443 
L 178.885785 235.523576 
L 179.240588 244.55651 
L 179.595391 208.424776 
L 179.950194 226.490643 
L 180.304997 235.523576 
L 181.014604 235.523576 
L 181.369407 217.457709 
L 181.72421 235.523576 
L 182.079013 226.490643 
L 182.788619 244.55651 
L 183.498226 226.490643 
L 183.853029 235.523576 
L 184.207832 235.523576 
L 184.562635 226.490643 
L 184.917438 226.490643 
L 185.272241 235.523576 
L 186.336651 208.424776 
L 186.691454 235.523576 
L 187.046257 190.358909 
L 187.40106 244.55651 
L 187.755863 217.457709 
L 188.46547 235.523576 
L 188.820273 226.490643 
L 189.175076 235.523576 
L 189.529879 235.523576 
L 189.884682 217.457709 
L 190.239485 262.622377 
L 190.594288 235.523576 
L 190.949091 226.490643 
L 191.303895 235.523576 
L 191.658698 235.523576 
L 192.013501 244.55651 
L 192.368304 235.523576 
L 192.723107 217.457709 
L 193.07791 208.424776 
L 193.432713 226.490643 
L 193.787517 235.523576 
L 194.14232 235.523576 
L 194.851926 217.457709 
L 195.916335 244.55651 
L 196.271138 226.490643 
L 196.625942 226.490643 
L 196.980745 244.55651 
L 197.335548 235.523576 
L 197.690351 190.358909 
L 198.045154 217.457709 
L 198.399957 226.490643 
L 198.75476 226.490643 
L 199.109563 244.55651 
L 199.464367 226.490643 
L 199.81917 235.523576 
L 200.173973 235.523576 
L 200.528776 226.490643 
L 200.883579 190.358909 
L 201.238382 226.490643 
L 201.593185 199.391843 
L 201.947989 226.490643 
L 202.302792 217.457709 
L 203.012398 235.523576 
L 203.722004 217.457709 
L 204.43161 217.457709 
L 204.786414 208.424776 
L 205.141217 208.424776 
L 205.49602 199.391843 
L 205.850823 235.523576 
L 206.205626 217.457709 
L 206.560429 235.523576 
L 206.915232 226.490643 
L 207.624839 244.55651 
L 207.979642 235.523576 
L 208.689248 253.589443 
L 209.044051 190.358909 
L 209.398854 253.589443 
L 209.753657 217.457709 
L 210.108461 199.391843 
L 210.463264 226.490643 
L 210.818067 244.55651 
L 211.17287 217.457709 
L 211.527673 244.55651 
L 211.882476 226.490643 
L 212.237279 199.391843 
L 212.592082 235.523576 
L 213.301689 217.457709 
L 213.656492 199.391843 
L 214.011295 145.194242 
L 214.366098 208.424776 
L 214.720901 226.490643 
L 215.075704 226.490643 
L 215.430508 217.457709 
L 215.785311 190.358909 
L 216.140114 217.457709 
L 216.494917 217.457709 
L 216.84972 208.424776 
L 217.204523 208.424776 
L 217.559326 226.490643 
L 217.914129 235.523576 
L 218.268933 199.391843 
L 218.623736 181.325976 
L 218.978539 235.523576 
L 219.333342 235.523576 
L 219.688145 244.55651 
L 220.042948 217.457709 
L 220.397751 208.424776 
L 220.752555 235.523576 
L 221.107358 226.490643 
L 221.462161 235.523576 
L 221.816964 235.523576 
L 222.171767 208.424776 
L 222.52657 226.490643 
L 223.236176 208.424776 
L 223.59098 190.358909 
L 224.300586 208.424776 
L 224.655389 181.325976 
L 225.010192 199.391843 
L 225.364995 145.194242 
L 225.719798 235.523576 
L 226.074602 226.490643 
L 226.429405 199.391843 
L 226.784208 190.358909 
L 227.848617 217.457709 
L 228.20342 208.424776 
L 228.558223 154.227175 
L 228.913027 199.391843 
L 229.26783 208.424776 
L 229.622633 199.391843 
L 230.332239 199.391843 
L 230.687042 208.424776 
L 231.041845 208.424776 
L 231.396648 190.358909 
L 232.106255 208.424776 
L 232.815861 208.424776 
L 233.170664 154.227175 
L 233.525467 154.227175 
L 233.88027 208.424776 
L 234.235074 199.391843 
L 234.589877 163.260109 
L 234.94468 154.227175 
L 235.299483 172.293042 
L 235.654286 208.424776 
L 236.009089 163.260109 
L 236.718695 226.490643 
L 237.073499 199.391843 
L 237.428302 136.161308 
L 237.783105 199.391843 
L 238.137908 181.325976 
L 238.492711 226.490643 
L 238.847514 208.424776 
L 239.202317 235.523576 
L 239.557121 217.457709 
L 239.911924 190.358909 
L 240.62153 190.358909 
L 240.976333 217.457709 
L 241.331136 181.325976 
L 241.685939 226.490643 
L 242.395546 172.293042 
L 242.750349 235.523576 
L 243.105152 235.523576 
L 243.459955 226.490643 
L 243.814758 253.589443 
L 244.169561 199.391843 
L 244.524364 226.490643 
L 245.233971 208.424776 
L 245.588774 181.325976 
L 245.943577 235.523576 
L 246.29838 181.325976 
L 246.653183 181.325976 
L 247.007986 172.293042 
L 247.362789 145.194242 
L 247.717593 208.424776 
L 248.072396 172.293042 
L 248.427199 235.523576 
L 248.782002 163.260109 
L 249.136805 208.424776 
L 249.491608 199.391843 
L 249.846411 226.490643 
L 250.201214 181.325976 
L 250.556018 244.55651 
L 250.910821 226.490643 
L 251.265624 190.358909 
L 251.620427 217.457709 
L 251.97523 127.128375 
L 252.330033 190.358909 
L 252.684836 145.194242 
L 253.03964 199.391843 
L 253.394443 226.490643 
L 253.749246 199.391843 
L 254.104049 217.457709 
L 254.458852 226.490643 
L 254.813655 217.457709 
L 255.168458 181.325976 
L 255.523261 172.293042 
L 256.942474 244.55651 
L 257.297277 190.358909 
L 257.65208 181.325976 
L 258.006883 163.260109 
L 258.361687 154.227175 
L 258.71649 163.260109 
L 259.071293 199.391843 
L 259.426096 199.391843 
L 259.780899 181.325976 
L 260.135702 199.391843 
L 260.490505 154.227175 
L 260.845308 154.227175 
L 261.200112 181.325976 
L 261.554915 199.391843 
L 261.909718 190.358909 
L 262.264521 163.260109 
L 262.619324 154.227175 
L 262.974127 190.358909 
L 263.32893 172.293042 
L 263.683733 109.062508 
L 264.038537 172.293042 
L 264.39334 208.424776 
L 264.748143 154.227175 
L 265.102946 235.523576 
L 265.457749 217.457709 
L 265.812552 226.490643 
L 266.167355 208.424776 
L 266.522159 145.194242 
L 266.876962 172.293042 
L 267.231765 244.55651 
L 267.586568 136.161308 
L 267.941371 172.293042 
L 268.296174 226.490643 
L 268.650977 208.424776 
L 269.00578 172.293042 
L 269.360584 244.55651 
L 269.715387 199.391843 
L 270.07019 172.293042 
L 271.134599 226.490643 
L 271.489402 217.457709 
L 271.844206 172.293042 
L 272.199009 217.457709 
L 272.553812 190.358909 
L 272.908615 181.325976 
L 273.263418 127.128375 
L 273.973024 244.55651 
L 274.327827 145.194242 
L 274.682631 244.55651 
L 275.037434 208.424776 
L 275.392237 217.457709 
L 275.74704 217.457709 
L 276.101843 208.424776 
L 276.456646 208.424776 
L 276.811449 154.227175 
L 277.166252 190.358909 
L 277.521056 145.194242 
L 277.875859 208.424776 
L 278.230662 127.128375 
L 278.585465 145.194242 
L 278.940268 181.325976 
L 279.295071 136.161308 
L 279.649874 145.194242 
L 280.004678 199.391843 
L 280.359481 145.194242 
L 280.714284 217.457709 
L 281.069087 181.325976 
L 281.42389 181.325976 
L 281.778693 136.161308 
L 282.133496 136.161308 
L 282.488299 109.062508 
L 282.843103 199.391843 
L 283.197906 127.128375 
L 283.552709 136.161308 
L 283.907512 199.391843 
L 284.262315 181.325976 
L 284.617118 199.391843 
L 284.971921 208.424776 
L 285.326725 172.293042 
L 285.681528 90.996641 
L 286.036331 163.260109 
L 286.391134 208.424776 
L 286.745937 118.095441 
L 287.10074 235.523576 
L 287.455543 181.325976 
L 287.810346 72.930774 
L 288.16515 136.161308 
L 288.519953 136.161308 
L 289.229559 199.391843 
L 289.584362 190.358909 
L 289.939165 163.260109 
L 290.293968 127.128375 
L 290.648772 163.260109 
L 291.003575 109.062508 
L 291.358378 181.325976 
L 291.713181 217.457709 
L 292.067984 154.227175 
L 292.422787 208.424776 
L 292.77759 208.424776 
L 293.487197 127.128375 
L 293.842 199.391843 
L 294.196803 181.325976 
L 294.551606 199.391843 
L 294.906409 145.194242 
L 295.261212 145.194242 
L 295.616015 163.260109 
L 295.970818 208.424776 
L 296.325622 145.194242 
L 296.680425 145.194242 
L 297.035228 199.391843 
L 297.390031 163.260109 
L 297.744834 181.325976 
L 298.099637 172.293042 
L 298.45444 109.062508 
L 298.809244 190.358909 
L 299.164047 90.996641 
L 299.873653 190.358909 
L 300.228456 199.391843 
L 300.583259 163.260109 
L 300.938062 199.391843 
L 301.292865 154.227175 
L 301.647669 136.161308 
L 302.002472 163.260109 
L 302.357275 145.194242 
L 302.712078 190.358909 
L 303.066881 127.128375 
L 303.421684 154.227175 
L 303.776487 136.161308 
L 304.131291 154.227175 
L 304.486094 154.227175 
L 304.840897 136.161308 
L 305.1957 100.029575 
L 305.550503 136.161308 
L 305.905306 199.391843 
L 306.260109 163.260109 
L 306.614912 163.260109 
L 306.969716 172.293042 
L 307.324519 145.194242 
L 307.679322 127.128375 
L 308.034125 190.358909 
L 308.388928 217.457709 
L 308.743731 118.095441 
L 309.098534 145.194242 
L 309.453338 118.095441 
L 309.808141 163.260109 
L 310.162944 127.128375 
L 310.517747 145.194242 
L 310.87255 136.161308 
L 311.227353 81.963708 
L 311.582156 163.260109 
L 311.936959 136.161308 
L 312.646566 172.293042 
L 313.001369 181.325976 
L 313.356172 163.260109 
L 313.710975 154.227175 
L 314.065778 136.161308 
L 314.420581 81.963708 
L 314.775384 145.194242 
L 315.130188 109.062508 
L 315.484991 163.260109 
L 315.839794 154.227175 
L 316.194597 109.062508 
L 316.5494 100.029575 
L 316.904203 154.227175 
L 317.259006 172.293042 
L 317.61381 172.293042 
L 317.968613 145.194242 
L 318.323416 190.358909 
L 318.678219 154.227175 
L 319.033022 100.029575 
L 319.387825 154.227175 
L 319.742628 81.963708 
L 320.097431 63.897841 
L 320.807038 190.358909 
L 321.161841 118.095441 
L 321.516644 109.062508 
L 321.871447 154.227175 
L 322.22625 90.996641 
L 322.581053 109.062508 
L 322.935857 181.325976 
L 323.29066 127.128375 
L 323.645463 109.062508 
L 324.000266 235.523576 
L 324.355069 100.029575 
L 324.709872 235.523576 
L 325.064675 109.062508 
L 325.419478 81.963708 
L 325.774282 163.260109 
L 326.129085 136.161308 
L 326.483888 90.996641 
L 327.193494 172.293042 
L 327.548297 145.194242 
L 327.9031 127.128375 
L 328.257903 90.996641 
L 328.612707 81.963708 
L 328.96751 190.358909 
L 329.322313 118.095441 
L 329.677116 100.029575 
L 330.031919 154.227175 
L 330.386722 90.996641 
L 330.741525 100.029575 
L 331.096329 235.523576 
L 331.451132 90.996641 
L 331.805935 109.062508 
L 332.160738 235.523576 
L 332.870344 118.095441 
L 333.225147 127.128375 
L 333.57995 118.095441 
L 333.934754 163.260109 
L 334.289557 163.260109 
L 334.64436 118.095441 
L 334.999163 100.029575 
L 335.353966 127.128375 
L 335.708769 72.930774 
L 336.063572 172.293042 
L 336.418376 163.260109 
L 336.773179 136.161308 
L 337.127982 118.095441 
L 337.837588 181.325976 
L 338.192391 109.062508 
L 338.901997 127.128375 
L 339.256801 235.523576 
L 339.611604 154.227175 
L 339.966407 118.095441 
L 340.32121 118.095441 
L 340.676013 172.293042 
L 341.030816 163.260109 
L 341.385619 199.391843 
L 341.740423 154.227175 
L 342.095226 154.227175 
L 342.450029 127.128375 
L 342.804832 90.996641 
L 343.514438 163.260109 
L 343.869241 163.260109 
L 344.224044 127.128375 
L 344.578848 145.194242 
L 344.933651 109.062508 
L 345.643257 163.260109 
L 345.99806 72.930774 
L 346.352863 136.161308 
L 346.707666 100.029575 
L 347.062469 127.128375 
L 347.417273 118.095441 
L 347.772076 226.490643 
L 348.126879 136.161308 
L 348.481682 118.095441 
L 349.191288 136.161308 
L 349.546091 181.325976 
L 349.900895 199.391843 
L 350.255698 100.029575 
L 350.610501 190.358909 
L 350.965304 118.095441 
L 351.320107 154.227175 
L 351.67491 163.260109 
L 352.029713 136.161308 
L 352.384516 136.161308 
L 352.73932 235.523576 
L 353.094123 127.128375 
L 353.448926 136.161308 
L 353.803729 154.227175 
L 354.158532 72.930774 
L 354.513335 127.128375 
L 354.868138 145.194242 
L 355.222942 172.293042 
L 355.577745 109.062508 
L 355.932548 136.161308 
L 356.287351 172.293042 
L 356.642154 109.062508 
L 356.996957 199.391843 
L 357.35176 145.194242 
L 357.706563 109.062508 
L 358.061367 90.996641 
L 358.41617 100.029575 
L 358.770973 118.095441 
L 359.125776 54.864907 
L 359.480579 127.128375 
L 359.835382 145.194242 
L 360.190185 109.062508 
L 360.899792 90.996641 
L 361.254595 217.457709 
L 361.609398 154.227175 
L 362.319004 100.029575 
L 362.673807 172.293042 
L 363.02861 172.293042 
L 363.383414 63.897841 
L 363.738217 208.424776 
L 364.09302 163.260109 
L 364.447823 90.996641 
L 364.802626 154.227175 
L 365.157429 109.062508 
L 365.512232 145.194242 
L 365.867035 109.062508 
L 366.221839 136.161308 
L 366.576642 109.062508 
L 366.931445 145.194242 
L 367.286248 199.391843 
L 367.641051 100.029575 
L 367.995854 163.260109 
L 368.350657 199.391843 
L 368.705461 154.227175 
L 369.060264 136.161308 
L 369.415067 199.391843 
L 369.76987 90.996641 
L 370.124673 127.128375 
L 370.479476 118.095441 
L 370.834279 163.260109 
L 371.189082 172.293042 
L 371.543886 163.260109 
L 371.898689 172.293042 
L 372.253492 136.161308 
L 372.608295 81.963708 
L 372.963098 81.963708 
L 373.317901 136.161308 
L 373.672704 100.029575 
L 374.027508 145.194242 
L 374.382311 154.227175 
L 374.737114 127.128375 
L 375.091917 127.128375 
L 375.44672 72.930774 
L 375.801523 109.062508 
L 376.156326 127.128375 
L 376.511129 90.996641 
L 376.865933 81.963708 
L 377.220736 81.963708 
L 377.575539 127.128375 
L 377.930342 127.128375 
L 378.285145 118.095441 
L 378.639948 154.227175 
L 378.994751 145.194242 
L 379.349554 36.79904 
L 380.059161 172.293042 
L 380.413964 72.930774 
L 380.768767 127.128375 
L 381.12357 109.062508 
L 381.478373 136.161308 
L 381.833176 172.293042 
L 382.18798 109.062508 
L 382.897586 163.260109 
L 383.252389 90.996641 
L 383.607192 172.293042 
L 383.961995 100.029575 
L 384.316798 100.029575 
L 384.671601 90.996641 
L 385.026405 127.128375 
L 385.736011 90.996641 
L 386.445617 145.194242 
L 386.80042 100.029575 
L 387.155223 118.095441 
L 387.510027 127.128375 
L 387.86483 127.128375 
L 388.219633 118.095441 
L 388.574436 72.930774 
L 388.929239 109.062508 
L 389.284042 109.062508 
L 389.993648 127.128375 
L 390.348452 90.996641 
L 390.703255 90.996641 
L 391.058058 136.161308 
L 391.412861 208.424776 
L 391.767664 145.194242 
L 392.122467 118.095441 
L 392.47727 118.095441 
L 392.832074 109.062508 
L 393.186877 118.095441 
L 393.54168 163.260109 
L 394.251286 81.963708 
L 394.606089 145.194242 
L 394.960892 172.293042 
L 395.315695 109.062508 
L 395.670499 109.062508 
L 396.380105 90.996641 
L 396.734908 136.161308 
L 397.089711 90.996641 
L 397.444514 109.062508 
L 397.799317 145.194242 
L 398.15412 100.029575 
L 398.508924 136.161308 
L 398.863727 145.194242 
L 399.21853 81.963708 
L 399.573333 163.260109 
L 399.928136 100.029575 
L 400.282939 136.161308 
L 400.637742 136.161308 
L 400.992546 90.996641 
L 401.347349 100.029575 
L 401.702152 72.930774 
L 402.056955 109.062508 
L 402.411758 81.963708 
L 402.766561 100.029575 
L 403.121364 100.029575 
L 403.476167 90.996641 
L 403.830971 100.029575 
L 404.540577 163.260109 
L 404.89538 118.095441 
L 405.250183 127.128375 
L 405.604986 100.029575 
L 405.959789 109.062508 
L 406.314593 90.996641 
L 407.024199 109.062508 
L 407.379002 27.766107 
L 407.733805 145.194242 
L 408.088608 100.029575 
L 408.443411 127.128375 
L 408.798214 100.029575 
L 409.153018 36.79904 
L 409.507821 127.128375 
L 409.862624 127.128375 
L 410.217427 81.963708 
L 410.57223 81.963708 
L 410.927033 118.095441 
L 411.281836 136.161308 
L 411.636639 90.996641 
L 411.991443 90.996641 
L 412.346246 109.062508 
L 412.701049 72.930774 
L 413.055852 109.062508 
L 413.410655 217.457709 
L 413.765458 100.029575 
L 414.120261 81.963708 
L 414.475065 109.062508 
L 414.829868 118.095441 
L 415.184671 100.029575 
L 415.539474 118.095441 
L 415.894277 90.996641 
L 416.24908 81.963708 
L 416.603883 90.996641 
L 416.958686 36.79904 
L 417.31349 90.996641 
L 417.668293 54.864907 
L 418.023096 127.128375 
L 418.377899 90.996641 
L 418.732702 81.963708 
L 419.087505 81.963708 
L 419.442308 145.194242 
L 419.797112 154.227175 
L 420.151915 81.963708 
L 420.506718 127.128375 
L 420.861521 72.930774 
L 421.216324 118.095441 
L 421.571127 136.161308 
L 421.92593 163.260109 
L 422.280733 90.996641 
L 422.635537 190.358909 
L 422.99034 136.161308 
L 423.345143 154.227175 
L 423.699946 81.963708 
L 424.054749 109.062508 
L 424.409552 145.194242 
L 425.119159 127.128375 
L 425.473962 100.029575 
L 425.828765 127.128375 
L 426.183568 100.029575 
L 426.538371 100.029575 
L 426.893174 90.996641 
L 427.247977 118.095441 
L 427.60278 127.128375 
L 427.957584 72.930774 
L 427.957584 72.930774 
" style="fill:none;stroke:#7b68ee;stroke-opacity:0.4;stroke-width:1.5;"/>
   </g>
   <g id="line2d_28">
    <path clip-path="url(#p391d8b1ac8)" d="M 73.509255 235.523576 
L 73.864058 226.490643 
L 74.218861 226.490643 
L 74.573664 224.23241 
L 74.928467 226.490643 
L 75.28327 229.501621 
L 75.638074 227.781062 
L 78.121695 234.233157 
L 78.476499 234.319185 
L 78.831302 233.265343 
L 79.540908 233.516258 
L 79.895711 233.146489 
L 80.250514 234.620283 
L 80.605317 234.663297 
L 80.960121 234.291813 
L 81.314924 235.13084 
L 82.02453 235.884894 
L 82.734136 235.858129 
L 83.088939 236.491391 
L 83.798546 236.42687 
L 84.153349 236.689116 
L 84.508152 236.652693 
L 85.217758 237.117623 
L 85.572561 238.362498 
L 86.282168 237.720776 
L 87.346577 237.555986 
L 87.70138 237.726731 
L 88.056183 238.319484 
L 88.410986 238.044395 
L 88.765789 237.987104 
L 89.120593 237.731627 
L 90.539805 237.551378 
L 90.894608 237.330163 
L 91.249411 237.471856 
L 91.604215 237.78181 
L 91.959018 237.909634 
L 92.668624 238.644044 
L 93.023427 238.910926 
L 93.733033 238.794121 
L 94.44264 238.384005 
L 94.797443 238.485194 
L 95.152246 238.437426 
L 96.571458 237.576516 
L 96.926261 237.680695 
L 97.635868 237.61817 
L 97.990671 237.201121 
L 99.764687 237.69148 
L 100.11949 237.306392 
L 100.474293 237.51786 
L 100.829096 237.376486 
L 101.183899 237.010008 
L 101.893505 236.973306 
L 102.248308 236.735311 
L 102.603112 236.829543 
L 102.957915 236.276321 
L 103.312718 236.373735 
L 104.377127 235.831517 
L 105.086734 235.92504 
L 105.79634 235.62176 
L 106.505946 235.427481 
L 107.215552 235.523576 
L 107.570355 235.430453 
L 107.925159 235.707922 
L 109.344371 235.613011 
L 109.699174 235.881316 
L 111.118387 236.149621 
L 113.602009 236.239056 
L 114.666418 236.507361 
L 115.021221 236.328491 
L 115.730827 236.239056 
L 116.085631 236.060186 
L 117.15004 235.970751 
L 117.859646 235.791881 
L 118.569253 235.881316 
L 118.924056 235.702446 
L 120.343268 235.613011 
L 121.052874 235.344706 
L 121.407678 234.897531 
L 121.762481 234.718662 
L 122.82689 234.897531 
L 123.8913 234.182052 
L 124.955709 234.450357 
L 125.665315 234.360922 
L 126.020118 234.360922 
L 126.374921 234.182052 
L 127.084528 234.092617 
L 127.794134 233.645442 
L 129.213346 232.303917 
L 129.56815 232.303917 
L 129.922953 232.482787 
L 131.342165 232.214482 
L 132.406575 232.393352 
L 133.116181 232.303917 
L 133.470984 232.303917 
L 133.825787 232.482787 
L 135.599803 232.035612 
L 135.954606 232.303917 
L 136.309409 232.125047 
L 136.664212 232.214482 
L 137.019015 232.572222 
L 138.438228 232.661657 
L 138.793031 233.198267 
L 139.147834 233.108832 
L 139.502637 233.287702 
L 139.85744 233.645442 
L 140.92185 233.734877 
L 141.986259 234.003182 
L 142.341062 234.360922 
L 143.050669 234.271487 
L 143.405472 234.539792 
L 143.760275 234.271487 
L 144.115078 234.539792 
L 144.469881 234.629227 
L 144.824684 234.539792 
L 145.179487 234.808096 
L 146.243897 234.897531 
L 146.5987 235.165836 
L 148.372716 235.076401 
L 148.727519 234.897531 
L 149.082322 234.539792 
L 149.437125 234.629227 
L 149.791928 234.092617 
L 150.501534 233.824312 
L 150.856338 234.003182 
L 151.211141 234.003182 
L 151.565944 234.271487 
L 152.27555 234.092617 
L 152.630353 233.824312 
L 152.985156 233.824312 
L 153.339959 234.182052 
L 153.694763 233.913747 
L 154.049566 233.824312 
L 155.113975 234.003182 
L 155.823581 233.913747 
L 157.242794 234.003182 
L 157.597597 234.182052 
L 158.307203 234.003182 
L 158.662006 234.092617 
L 159.01681 234.360922 
L 159.726416 234.450357 
L 161.145628 234.450357 
L 161.855235 234.182052 
L 162.564841 234.092617 
L 163.984053 234.182052 
L 165.048463 234.986966 
L 165.403266 234.897531 
L 165.758069 234.539792 
L 166.112872 234.808096 
L 166.467675 234.808096 
L 166.822478 234.629227 
L 167.177282 234.629227 
L 167.532085 234.360922 
L 167.886888 234.450357 
L 168.596494 234.271487 
L 168.951297 234.450357 
L 169.3061 234.182052 
L 173.918541 234.092617 
L 174.628147 233.734877 
L 174.982951 233.734877 
L 175.337754 233.913747 
L 175.692557 233.734877 
L 176.04736 233.913747 
L 176.402163 233.913747 
L 176.756966 233.645442 
L 177.111769 233.734877 
L 177.466572 233.466572 
L 177.821376 233.377137 
L 178.176179 232.572222 
L 178.530982 232.751092 
L 179.240588 232.661657 
L 179.950194 232.035612 
L 180.659801 232.035612 
L 182.433816 231.141262 
L 182.788619 231.141262 
L 183.143423 231.320132 
L 183.853029 231.141262 
L 184.207832 231.320132 
L 184.562635 231.230697 
L 184.917438 231.409567 
L 185.272241 231.230697 
L 185.627044 231.499002 
L 186.691454 231.320132 
L 187.046257 230.872957 
L 187.40106 230.872957 
L 187.755863 230.694087 
L 188.110666 230.694087 
L 188.46547 230.962392 
L 188.820273 230.872957 
L 189.175076 230.515217 
L 189.529879 230.783522 
L 189.884682 230.604652 
L 190.239485 230.783522 
L 190.594288 230.783522 
L 190.949091 230.604652 
L 192.013501 230.783522 
L 192.723107 230.604652 
L 193.07791 230.336347 
L 194.497123 230.246912 
L 195.206729 229.978607 
L 196.980745 229.978607 
L 197.335548 230.157477 
L 197.690351 229.799737 
L 198.399957 229.889172 
L 198.75476 229.799737 
L 199.109563 229.978607 
L 199.81917 229.978607 
L 200.173973 229.799737 
L 200.528776 229.799737 
L 200.883579 229.263127 
L 201.593185 229.173692 
L 202.302792 228.726518 
L 203.367201 229.263127 
L 203.722004 229.084257 
L 204.43161 228.994822 
L 204.786414 228.547648 
L 205.141217 228.547648 
L 205.49602 228.279343 
L 207.270036 227.921603 
L 207.624839 228.100473 
L 207.979642 228.011038 
L 208.689248 228.279343 
L 209.044051 227.832168 
L 209.398854 228.100473 
L 209.753657 228.011038 
L 210.108461 227.742733 
L 210.818067 227.832168 
L 211.17287 227.474428 
L 211.527673 227.563863 
L 211.882476 227.384993 
L 212.237279 227.027253 
L 212.592082 227.116688 
L 212.946886 227.027253 
L 213.301689 227.116688 
L 214.011295 226.490643 
L 214.366098 226.043468 
L 215.430508 225.864598 
L 215.785311 225.506858 
L 217.559326 224.701943 
L 217.914129 224.791378 
L 218.268933 224.433638 
L 218.623736 223.807593 
L 219.333342 223.897028 
L 219.688145 223.986463 
L 220.397751 223.628723 
L 220.752555 223.718158 
L 221.107358 223.628723 
L 222.171767 223.897028 
L 222.52657 223.807593 
L 222.881373 224.075898 
L 223.59098 223.449853 
L 224.300586 222.913244 
L 225.010192 222.108329 
L 225.364995 221.213979 
L 225.719798 221.392849 
L 227.493814 219.693584 
L 228.20342 219.156974 
L 228.558223 218.530929 
L 229.26783 218.262624 
L 230.332239 217.278839 
L 231.041845 217.010535 
L 231.751452 216.116185 
L 232.461058 215.758445 
L 232.815861 215.400705 
L 233.170664 214.59579 
L 233.525467 214.23805 
L 233.88027 214.148615 
L 234.235074 213.88031 
L 234.589877 213.254265 
L 234.94468 212.359915 
L 235.299483 211.823305 
L 235.654286 211.555 
L 236.009089 210.839521 
L 236.363892 210.571216 
L 236.718695 210.928956 
L 237.073499 210.660651 
L 237.428302 210.034606 
L 238.137908 209.408561 
L 238.492711 209.408561 
L 238.847514 209.140256 
L 239.557121 209.229691 
L 240.62153 208.514211 
L 240.976333 208.603646 
L 242.040742 208.156471 
L 242.395546 207.530426 
L 243.105152 207.619861 
L 243.459955 207.440991 
L 243.814758 207.619861 
L 244.169561 207.172686 
L 244.524364 206.904381 
L 244.879167 207.172686 
L 245.588774 206.367771 
L 245.943577 206.725511 
L 246.29838 206.278336 
L 247.362789 204.221332 
L 248.427199 203.774157 
L 248.782002 203.148112 
L 249.491608 203.058677 
L 249.846411 203.863592 
L 250.201214 203.595287 
L 250.556018 203.774157 
L 250.910821 203.774157 
L 251.265624 203.505852 
L 251.620427 203.774157 
L 251.97523 202.879807 
L 252.330033 202.611502 
L 252.684836 201.985457 
L 253.394443 201.896022 
L 253.749246 201.538282 
L 254.104049 201.717152 
L 254.458852 202.164327 
L 254.813655 201.985457 
L 255.878065 200.465062 
L 256.942474 200.554497 
L 258.006883 199.123538 
L 258.71649 197.871448 
L 259.071293 197.782013 
L 259.426096 197.871448 
L 260.490505 197.334838 
L 260.845308 196.887663 
L 261.200112 197.245403 
L 262.619324 195.814443 
L 262.974127 195.725008 
L 263.32893 195.367268 
L 263.683733 194.294048 
L 264.038537 193.936308 
L 264.39334 194.472918 
L 264.748143 194.025743 
L 265.812552 194.741223 
L 266.167355 194.830658 
L 266.522159 194.204613 
L 266.876962 193.846873 
L 267.231765 194.383483 
L 267.586568 193.757439 
L 267.941371 193.399699 
L 268.296174 193.578569 
L 268.650977 193.578569 
L 269.00578 193.757439 
L 269.360584 194.651788 
L 269.715387 194.562353 
L 270.07019 194.294048 
L 270.424993 194.562353 
L 271.134599 195.635573 
L 272.199009 195.993313 
L 272.553812 195.635573 
L 273.263418 195.367268 
L 273.618221 195.277833 
L 273.973024 195.903878 
L 274.327827 195.098963 
L 274.682631 195.456703 
L 275.037434 195.188398 
L 275.392237 195.188398 
L 276.101843 195.635573 
L 276.456646 195.814443 
L 276.811449 195.188398 
L 277.166252 195.277833 
L 277.521056 194.472918 
L 277.875859 194.562353 
L 278.230662 194.115178 
L 278.585465 193.220829 
L 278.940268 192.684219 
L 279.649874 190.716649 
L 280.004678 190.716649 
L 280.359481 189.911734 
L 280.714284 189.911734 
L 281.069087 189.643429 
L 281.42389 189.643429 
L 281.778693 188.659644 
L 282.133496 188.212469 
L 282.488299 187.49699 
L 282.843103 187.765295 
L 283.197906 187.586425 
L 283.552709 186.870945 
L 283.907512 187.13925 
L 284.262315 186.60264 
L 284.617118 186.96038 
L 284.971921 186.96038 
L 285.326725 186.692075 
L 285.681528 185.35055 
L 286.036331 185.17168 
L 286.391134 184.81394 
L 286.745937 183.74072 
L 287.10074 184.187895 
L 287.455543 183.830155 
L 288.16515 182.756935 
L 288.519953 182.6675 
L 289.229559 182.13089 
L 289.584362 182.041456 
L 289.939165 181.504846 
L 290.293968 180.521061 
L 291.003575 179.268971 
L 291.358378 179.358406 
L 291.713181 179.626711 
L 292.067984 179.090101 
L 292.422787 178.911231 
L 292.77759 178.553491 
L 293.132393 178.374621 
L 293.487197 177.838011 
L 294.551606 178.821796 
L 295.261212 177.748576 
L 295.616015 177.569706 
L 295.970818 177.659141 
L 296.680425 177.480271 
L 297.035228 177.659141 
L 297.390031 177.301401 
L 297.744834 177.211966 
L 298.099637 177.301401 
L 298.45444 176.854226 
L 298.809244 176.854226 
L 299.164047 176.049312 
L 299.873653 176.496486 
L 300.228456 176.407051 
L 300.583259 176.496486 
L 300.938062 176.138747 
L 301.292865 175.512702 
L 301.647669 174.618352 
L 302.002472 174.171177 
L 302.357275 174.171177 
L 302.712078 174.350047 
L 303.066881 173.187392 
L 303.421684 173.366262 
L 303.776487 173.008522 
L 304.486094 171.756432 
L 304.840897 171.398692 
L 305.1957 169.967733 
L 305.550503 169.341688 
L 305.905306 169.609993 
L 306.260109 169.341688 
L 306.969716 168.357903 
L 307.324519 167.642423 
L 307.679322 167.195248 
L 308.034125 166.926943 
L 308.388928 167.195248 
L 308.743731 166.569203 
L 309.098534 166.748073 
L 309.808141 165.227678 
L 310.162944 165.048808 
L 311.227353 162.008019 
L 312.291763 160.219319 
L 312.646566 160.398189 
L 313.001369 160.308754 
L 313.356172 160.487624 
L 313.710975 159.951014 
L 314.065778 160.040449 
L 314.420581 159.414404 
L 315.130188 158.788359 
L 315.484991 158.967229 
L 316.194597 158.162315 
L 316.5494 156.99966 
L 316.904203 156.731355 
L 317.259006 156.64192 
L 317.61381 156.99966 
L 317.968613 157.089095 
L 318.323416 157.89401 
L 318.678219 157.446835 
L 319.033022 157.17853 
L 319.387825 157.3574 
L 320.097431 155.03209 
L 320.452235 154.31661 
L 320.807038 154.13774 
L 321.161841 153.60113 
L 321.516644 153.78 
L 321.871447 153.690565 
L 322.22625 152.527911 
L 322.581053 152.438476 
L 323.29066 151.365256 
L 323.645463 151.722996 
L 324.000266 152.706781 
L 324.355069 152.349041 
L 324.709872 152.975085 
L 325.419478 151.007516 
L 326.129085 151.096951 
L 326.483888 150.381471 
L 326.838691 150.560341 
L 327.193494 150.470906 
L 327.548297 149.755426 
L 327.9031 149.487121 
L 328.612707 147.072376 
L 328.96751 147.251246 
L 329.322313 147.161811 
L 329.677116 146.178027 
L 330.031919 145.909722 
L 330.386722 144.836502 
L 330.741525 144.389327 
L 331.096329 145.283677 
L 331.451132 144.568197 
L 331.805935 143.584412 
L 332.160738 144.478762 
L 332.515541 144.747067 
L 332.870344 143.942152 
L 333.225147 143.584412 
L 333.57995 142.958367 
L 333.934754 142.868932 
L 334.289557 143.405542 
L 334.64436 142.690062 
L 334.999163 142.779497 
L 335.353966 142.690062 
L 335.708769 141.527407 
L 336.063572 141.259102 
L 336.418376 141.259102 
L 336.773179 140.633058 
L 337.127982 140.275318 
L 337.837588 140.633058 
L 338.192391 140.275318 
L 338.547194 139.559838 
L 338.901997 139.559838 
L 339.256801 140.364753 
L 339.611604 140.543623 
L 340.32121 139.828143 
L 340.676013 140.185883 
L 341.385619 141.437972 
L 341.740423 140.990798 
L 342.095226 140.901363 
L 342.450029 140.543623 
L 342.804832 139.738708 
L 343.159635 139.559838 
L 343.514438 139.917578 
L 343.869241 139.649273 
L 344.224044 138.754923 
L 344.578848 139.023228 
L 344.933651 138.665488 
L 345.288454 138.844358 
L 345.643257 138.844358 
L 345.99806 138.307748 
L 346.352863 138.218313 
L 346.707666 137.860573 
L 347.062469 138.307748 
L 347.417273 137.860573 
L 347.772076 138.754923 
L 348.126879 138.576053 
L 348.836485 137.502833 
L 349.191288 137.234528 
L 349.546091 137.502833 
L 349.900895 138.128878 
L 350.255698 138.307748 
L 350.610501 138.754923 
L 350.965304 138.844358 
L 351.320107 138.754923 
L 351.67491 138.844358 
L 352.384516 139.470403 
L 352.73932 140.275318 
L 353.448926 139.470403 
L 353.803729 139.559838 
L 354.158532 138.397183 
L 354.513335 138.128878 
L 354.868138 138.576053 
L 355.577745 139.023228 
L 355.932548 139.738708 
L 356.287351 140.185883 
L 356.642154 139.380968 
L 356.996957 140.185883 
L 357.35176 140.543623 
L 357.706563 140.096448 
L 358.41617 140.007013 
L 359.125776 138.665488 
L 359.480579 138.844358 
L 359.835382 137.950008 
L 360.190185 138.039443 
L 360.544988 136.697918 
L 360.899792 136.519048 
L 361.254595 137.860573 
L 361.964201 137.681703 
L 362.319004 137.771138 
L 362.673807 138.218313 
L 363.02861 138.218313 
L 363.383414 137.413398 
L 364.09302 138.933793 
L 364.447823 139.023228 
L 364.802626 138.665488 
L 365.157429 138.576053 
L 365.512232 139.023228 
L 365.867035 138.576053 
L 366.221839 139.023228 
L 366.576642 139.112663 
L 366.931445 138.218313 
L 367.286248 139.291533 
L 367.641051 139.202098 
L 367.995854 138.486618 
L 369.060264 139.202098 
L 369.415067 140.007013 
L 369.76987 139.291533 
L 370.124673 138.933793 
L 370.479476 138.933793 
L 371.543886 140.901363 
L 371.898689 140.901363 
L 372.253492 140.633058 
L 372.963098 139.738708 
L 373.317901 139.559838 
L 373.672704 138.754923 
L 374.382311 139.470403 
L 374.737114 139.470403 
L 375.44672 137.592268 
L 375.801523 137.502833 
L 376.156326 137.592268 
L 376.865933 135.982438 
L 377.220736 134.819784 
L 377.930342 134.283174 
L 378.285145 134.193739 
L 378.639948 134.819784 
L 378.994751 134.998654 
L 379.349554 133.746564 
L 379.704358 133.120519 
L 380.059161 133.567694 
L 380.413964 132.852214 
L 380.768767 133.031084 
L 381.478373 132.494474 
L 381.833176 133.478259 
L 382.18798 133.209954 
L 382.897586 133.925434 
L 383.252389 133.657129 
L 383.961995 132.762779 
L 384.316798 132.583909 
L 384.671601 132.226169 
L 385.026405 132.136734 
L 385.381208 131.421254 
L 385.736011 130.348034 
L 386.090814 130.526904 
L 386.445617 130.079729 
L 386.80042 129.900859 
L 387.510027 129.18538 
L 388.219633 128.917075 
L 388.574436 127.307245 
L 389.284042 126.86007 
L 389.638845 126.50233 
L 389.993648 127.03894 
L 390.348452 126.6812 
L 391.058058 125.78685 
L 391.412861 126.770635 
L 391.767664 126.86007 
L 392.122467 126.32346 
L 392.47727 126.412895 
L 392.832074 125.518545 
L 393.186877 125.25024 
L 393.54168 125.78685 
L 393.896483 126.055155 
L 394.251286 125.876285 
L 394.606089 126.14459 
L 394.960892 127.307245 
L 395.315695 127.128375 
L 395.670499 126.770635 
L 396.380105 126.591765 
L 396.734908 127.03894 
L 397.089711 125.78685 
L 397.444514 125.339675 
L 397.799317 125.518545 
L 398.15412 125.518545 
L 398.863727 124.8925 
L 399.21853 125.07137 
L 399.573333 124.624195 
L 399.928136 123.99815 
L 400.282939 124.445325 
L 400.992546 124.087585 
L 401.702152 123.282671 
L 402.411758 122.746061 
L 402.766561 122.298886 
L 403.121364 121.315101 
L 403.476167 121.225666 
L 404.185774 119.973576 
L 404.540577 120.063011 
L 404.89538 119.884141 
L 405.250183 119.168661 
L 405.604986 119.258096 
L 406.314593 118.810921 
L 407.024199 117.558832 
L 407.379002 116.217307 
L 408.088608 115.591262 
L 408.443411 116.038437 
L 408.798214 116.217307 
L 409.153018 115.233522 
L 409.507821 115.501827 
L 409.862624 115.322957 
L 410.217427 114.607477 
L 410.57223 114.160302 
L 410.927033 114.070867 
L 411.281836 114.696912 
L 411.636639 114.518042 
L 411.991443 114.160302 
L 412.346246 114.339172 
L 412.701049 114.249737 
L 413.055852 114.518042 
L 413.410655 115.412392 
L 414.120261 114.786347 
L 414.475065 114.339172 
L 414.829868 114.070867 
L 415.184671 114.696912 
L 415.539474 114.875782 
L 415.894277 114.070867 
L 416.24908 114.160302 
L 416.603883 113.802562 
L 416.958686 113.087082 
L 417.31349 112.639907 
L 417.668293 111.477253 
L 418.023096 111.656123 
L 418.377899 111.208948 
L 418.732702 110.404033 
L 419.087505 110.314598 
L 419.442308 110.046293 
L 419.797112 110.582903 
L 420.151915 110.404033 
L 420.506718 110.761773 
L 420.861521 110.225163 
L 421.216324 110.314598 
L 421.92593 111.208948 
L 422.280733 110.672338 
L 422.635537 111.566688 
L 423.345143 112.013862 
L 423.699946 111.566688 
L 424.054749 111.477253 
L 424.409552 112.192732 
L 425.119159 112.639907 
L 425.473962 112.461037 
L 426.183568 112.550472 
L 426.538371 112.639907 
L 426.893174 112.192732 
L 427.247977 111.298383 
L 427.60278 111.119513 
L 427.957584 110.672338 
L 427.957584 110.672338 
" style="fill:none;stroke:#4b0082;stroke-width:5;"/>
   </g>
   <g id="patch_3">
    <path d="M 55.786838 293.334351 
L 55.786838 15.12 
" style="fill:none;stroke:#f0f0f0;stroke-linecap:square;stroke-linejoin:miter;stroke-width:3;"/>
   </g>
   <g id="patch_4">
    <path d="M 55.786838 293.334351 
L 445.68 293.334351 
" style="fill:none;stroke:#f0f0f0;stroke-linecap:square;stroke-linejoin:miter;stroke-width:3;"/>
   </g>
  </g>
 </g>
 <defs>
  <clipPath id="p391d8b1ac8">
   <rect height="278.214351" width="389.893162" x="55.786838" y="15.12"/>
  </clipPath>
 </defs>
</svg>
